<svg width="40" height="42" viewBox="0 0 40 42" fill="none" xmlns="http://www.w3.org/2000/svg">
<circle cx="-2.5" cy="-0.5" r="42.5" fill="#991A85"/>
<path d="M12.4432 23L14.3523 11.3636H15.9432L14.0341 23H12.4432ZM7.19886 20L7.46591 18.4091H16.4205L16.1534 20H7.19886ZM8.35227 23L10.2614 11.3636H11.8523L9.94318 23H8.35227ZM7.875 15.9545L8.13636 14.3636H17.0909L16.8295 15.9545H7.875ZM18.331 23V21.4773L22.3707 17.517C22.7571 17.1269 23.0791 16.7803 23.3366 16.4773C23.5942 16.1742 23.7874 15.8807 23.9162 15.5966C24.045 15.3125 24.1094 15.0095 24.1094 14.6875C24.1094 14.3201 24.026 14.0057 23.8594 13.7443C23.6927 13.4792 23.4635 13.2746 23.1719 13.1307C22.8802 12.9867 22.5488 12.9148 22.1776 12.9148C21.795 12.9148 21.4598 12.9943 21.1719 13.1534C20.884 13.3087 20.6605 13.5303 20.5014 13.8182C20.3461 14.1061 20.2685 14.4489 20.2685 14.8466H18.2628C18.2628 14.108 18.4313 13.4659 18.7685 12.9205C19.1056 12.375 19.5696 11.9527 20.1605 11.6534C20.7552 11.3542 21.437 11.2045 22.206 11.2045C22.9863 11.2045 23.6719 11.3504 24.2628 11.642C24.8537 11.9337 25.312 12.3333 25.6378 12.8409C25.9673 13.3485 26.1321 13.928 26.1321 14.5795C26.1321 15.0152 26.0488 15.4432 25.8821 15.8636C25.7154 16.2841 25.4219 16.75 25.0014 17.2614C24.5848 17.7727 23.9995 18.392 23.2457 19.1193L21.2401 21.1591V21.2386H26.3082V23H18.331Z" fill="white"/>
</svg>
