<svg width="40" height="42" viewBox="0 0 40 42" fill="none" xmlns="http://www.w3.org/2000/svg">
<circle cx="-2.5" cy="-0.5" r="42.5" fill="#991A85"/>
<path d="M12.4432 23L14.3523 11.3636H15.9432L14.0341 23H12.4432ZM7.19886 20L7.46591 18.4091H16.4205L16.1534 20H7.19886ZM8.35227 23L10.2614 11.3636H11.8523L9.94318 23H8.35227ZM7.875 15.9545L8.13636 14.3636H17.0909L16.8295 15.9545H7.875ZM22.5071 23.1591C21.6889 23.1591 20.9616 23.0189 20.3253 22.7386C19.6927 22.4583 19.1927 22.0682 18.8253 21.5682C18.4579 21.0682 18.2628 20.4905 18.2401 19.8352H20.3764C20.3954 20.1496 20.4995 20.4242 20.6889 20.6591C20.8783 20.8902 21.1302 21.0701 21.4446 21.1989C21.759 21.3277 22.1113 21.392 22.5014 21.392C22.9181 21.392 23.2874 21.3201 23.6094 21.1761C23.9313 21.0284 24.1832 20.8239 24.3651 20.5625C24.5469 20.3011 24.6359 20 24.6321 19.6591C24.6359 19.3068 24.545 18.9962 24.3594 18.7273C24.1738 18.4583 23.9048 18.2481 23.5526 18.0966C23.2041 17.9451 22.7836 17.8693 22.2912 17.8693H21.2628V16.2443H22.2912C22.6965 16.2443 23.0507 16.1742 23.3537 16.0341C23.6605 15.8939 23.901 15.697 24.0753 15.4432C24.2495 15.1856 24.3348 14.8883 24.331 14.5511C24.3348 14.2216 24.2609 13.9356 24.1094 13.6932C23.9616 13.447 23.7514 13.2557 23.4787 13.1193C23.2098 12.983 22.8935 12.9148 22.5298 12.9148C22.1738 12.9148 21.8442 12.9792 21.5412 13.108C21.2382 13.2367 20.9938 13.4205 20.8082 13.6591C20.6226 13.8939 20.5241 14.1742 20.5128 14.5H18.4844C18.4995 13.8485 18.687 13.2765 19.0469 12.7841C19.4105 12.2879 19.8954 11.9015 20.5014 11.625C21.1075 11.3447 21.7874 11.2045 22.5412 11.2045C23.3177 11.2045 23.992 11.3504 24.5639 11.642C25.1397 11.9299 25.5848 12.3182 25.8991 12.8068C26.2135 13.2955 26.3707 13.8352 26.3707 14.4261C26.3745 15.0814 26.1813 15.6307 25.7912 16.0739C25.4048 16.517 24.8973 16.8068 24.2685 16.9432V17.0341C25.0866 17.1477 25.7135 17.4508 26.1491 17.9432C26.5885 18.4318 26.8063 19.0398 26.8026 19.767C26.8026 20.4186 26.617 21.0019 26.2457 21.517C25.8783 22.0284 25.3707 22.4299 24.723 22.7216C24.0791 23.0133 23.3404 23.1591 22.5071 23.1591Z" fill="white"/>
</svg>
