<svg width="142" height="24" viewBox="0 0 142 24" fill="none" xmlns="http://www.w3.org/2000/svg">
<path d="M20 5.9246C19.2645 6.25051 18.4744 6.47071 17.6438 6.57025C18.4911 6.06289 19.1412 5.25782 19.4477 4.29948C18.655 4.76984 17.7768 5.1116 16.8422 5.29481C16.0935 4.49855 15.0277 4 13.8474 4C11.582 4 9.74456 5.8374 9.74456 8.10464C9.74456 8.42526 9.78156 8.73707 9.85026 9.03832C6.43883 8.86656 3.41672 7.23263 1.39258 4.75046C1.04025 5.35823 0.837664 6.06289 0.837664 6.81335C0.837664 8.23677 1.56258 9.4937 2.66273 10.2292C1.98978 10.2072 1.35735 10.0231 0.804193 9.71567V9.76852C0.804193 11.7565 2.21792 13.4151 4.09583 13.7921C3.75055 13.8855 3.38853 13.9348 3.01506 13.9348C2.75081 13.9348 2.49273 13.9102 2.24258 13.8626C2.76491 15.4921 4.27993 16.6795 6.07593 16.7112C4.67101 17.8122 2.90144 18.4684 0.979477 18.4684C0.648287 18.4684 0.321501 18.449 0 18.4112C1.81626 19.5765 3.97252 20.2547 6.28909 20.2547C13.8378 20.2547 17.9644 14.0026 17.9644 8.58029C17.9644 8.40412 17.96 8.2262 17.9521 8.05003C18.7536 7.47045 19.4495 6.74905 19.9982 5.92724L20 5.9246Z" fill="black"/>
<path fill-rule="evenodd" clip-rule="evenodd" d="M88 2C85.284 2 84.944 2.01133 83.8773 2.06C82.8127 2.10867 82.0853 2.278 81.4493 2.52533C80.7827 2.776 80.178 3.16933 79.678 3.67867C79.1695 4.17809 78.7759 4.78233 78.5247 5.44933C78.2787 6.08533 78.1087 6.81333 78.06 7.878C78.012 8.944 78 9.28333 78 12C78 14.7167 78.0113 15.056 78.06 16.1227C78.1087 17.1873 78.278 17.9147 78.5253 18.5507C78.776 19.2173 79.1693 19.822 79.6787 20.322C80.1781 20.8305 80.7823 21.2241 81.4493 21.4753C82.0853 21.722 82.8127 21.8913 83.8773 21.94C84.944 21.9887 85.284 22 88 22C90.716 22 91.056 21.9887 92.1227 21.94C93.1873 21.8913 93.9147 21.722 94.5507 21.4747C95.2173 21.224 95.822 20.8307 96.322 20.3213C96.8305 19.8219 97.2241 19.2177 97.4753 18.5507C97.722 17.9147 97.8913 17.1873 97.94 16.1227C97.9887 15.056 98 14.716 98 12C98 9.284 97.9887 8.944 97.94 7.87733C97.8913 6.81267 97.722 6.08533 97.4747 5.44933C97.2236 4.78204 96.83 4.17755 96.3213 3.678C95.8219 3.16948 95.2177 2.77591 94.5507 2.52467C93.9147 2.27867 93.1867 2.10867 92.122 2.06C91.056 2.012 90.7167 2 88 2ZM88 3.802C90.67 3.802 90.9867 3.812 92.0413 3.86C93.016 3.90467 93.5453 4.06667 93.898 4.20467C94.3647 4.38533 94.698 4.60267 95.048 4.952C95.398 5.302 95.6147 5.63533 95.7953 6.102C95.9327 6.45467 96.0953 6.984 96.14 7.95867C96.188 9.01333 96.198 9.33 96.198 12C96.198 14.67 96.188 14.9867 96.14 16.0413C96.0953 17.016 95.9333 17.5453 95.7953 17.898C95.6353 18.3324 95.3799 18.7253 95.048 19.048C94.7254 19.38 94.3324 19.6354 93.898 19.7953C93.5453 19.9327 93.016 20.0953 92.0413 20.14C90.9867 20.188 90.6707 20.198 88 20.198C85.3293 20.198 85.0133 20.188 83.9587 20.14C82.984 20.0953 82.4547 19.9333 82.102 19.7953C81.6676 19.6353 81.2747 19.3799 80.952 19.048C80.6201 18.7253 80.3648 18.3323 80.2047 17.898C80.0673 17.5453 79.9047 17.016 79.86 16.0413C79.812 14.9867 79.802 14.67 79.802 12C79.802 9.33 79.812 9.01333 79.86 7.95867C79.9047 6.984 80.0667 6.45467 80.2047 6.102C80.3853 5.63533 80.6027 5.302 80.952 4.952C81.2746 4.62003 81.6676 4.36465 82.102 4.20467C82.4547 4.06733 82.984 3.90467 83.9587 3.86C85.0133 3.812 85.33 3.802 88 3.802Z" fill="black"/>
<path fill-rule="evenodd" clip-rule="evenodd" d="M88 15.3367C87.5618 15.3367 87.128 15.2504 86.7231 15.0827C86.3183 14.915 85.9505 14.6692 85.6406 14.3594C85.3308 14.0495 85.085 13.6817 84.9173 13.2769C84.7497 12.8721 84.6633 12.4382 84.6633 12C84.6633 11.5618 84.7497 11.1279 84.9173 10.7231C85.085 10.3183 85.3308 9.95046 85.6406 9.64062C85.9505 9.33078 86.3183 9.08501 86.7231 8.91732C87.128 8.74964 87.5618 8.66333 88 8.66333C88.885 8.66333 89.7336 9.01487 90.3594 9.64062C90.9851 10.2664 91.3367 11.1151 91.3367 12C91.3367 12.8849 90.9851 13.7336 90.3594 14.3594C89.7336 14.9851 88.885 15.3367 88 15.3367ZM88 6.86C86.6368 6.86 85.3294 7.40153 84.3655 8.36547C83.4015 9.32941 82.86 10.6368 82.86 12C82.86 13.3632 83.4015 14.6706 84.3655 15.6345C85.3294 16.5985 86.6368 17.14 88 17.14C89.3632 17.14 90.6706 16.5985 91.6345 15.6345C92.5985 14.6706 93.14 13.3632 93.14 12C93.14 10.6368 92.5985 9.32941 91.6345 8.36547C90.6706 7.40153 89.3632 6.86 88 6.86ZM94.6353 6.76667C94.6353 7.0889 94.5073 7.39794 94.2795 7.6258C94.0516 7.85366 93.7426 7.98167 93.4204 7.98167C93.0981 7.98167 92.7891 7.85366 92.5612 7.6258C92.3334 7.39794 92.2053 7.0889 92.2053 6.76667C92.2053 6.44443 92.3334 6.13539 92.5612 5.90753C92.7891 5.67968 93.0981 5.55167 93.4204 5.55167C93.7426 5.55167 94.0516 5.67968 94.2795 5.90753C94.5073 6.13539 94.6353 6.44443 94.6353 6.76667Z" fill="black"/>
<path d="M58 3.47059V20.5294C58 20.9194 57.8451 21.2935 57.5693 21.5693C57.2935 21.8451 56.9194 22 56.5294 22H39.4706C39.0806 22 38.7065 21.8451 38.4307 21.5693C38.1549 21.2935 38 20.9194 38 20.5294V3.47059C38 3.08056 38.1549 2.70651 38.4307 2.43073C38.7065 2.15494 39.0806 2 39.4706 2H56.5294C56.9194 2 57.2935 2.15494 57.5693 2.43073C57.8451 2.70651 58 3.08056 58 3.47059V3.47059ZM43.8824 9.64706H40.9412V19.0588H43.8824V9.64706ZM44.1471 6.41176C44.1486 6.18929 44.1063 5.96869 44.0226 5.76255C43.9389 5.55642 43.8154 5.36879 43.6592 5.21039C43.503 5.05198 43.3171 4.92589 43.1121 4.83933C42.9072 4.75277 42.6872 4.70742 42.4647 4.70588H42.4118C41.9593 4.70588 41.5254 4.88561 41.2055 5.20552C40.8856 5.52544 40.7059 5.95934 40.7059 6.41176C40.7059 6.86419 40.8856 7.29809 41.2055 7.61801C41.5254 7.93792 41.9593 8.11765 42.4118 8.11765V8.11765C42.6343 8.12312 42.8556 8.0847 43.0633 8.00458C43.2709 7.92447 43.4607 7.80422 43.6219 7.65072C43.783 7.49722 43.9124 7.31346 44.0025 7.10996C44.0926 6.90646 44.1417 6.6872 44.1471 6.46471V6.41176ZM55.0588 13.3412C55.0588 10.5118 53.2588 9.41177 51.4706 9.41177C50.8851 9.38245 50.3021 9.50715 49.7799 9.77345C49.2576 10.0397 48.8143 10.4383 48.4941 10.9294H48.4118V9.64706H45.6471V19.0588H48.5882V14.0529C48.5457 13.5403 48.7072 13.0315 49.0376 12.6372C49.3681 12.2429 49.8407 11.9949 50.3529 11.9471H50.4647C51.4 11.9471 52.0941 12.5353 52.0941 14.0176V19.0588H55.0353L55.0588 13.3412Z" fill="black"/>
<path d="M140 12C140 6.47717 135.523 2.00002 130 2.00002C124.477 2.00002 120 6.47717 120 12C120 16.9913 123.657 21.1283 128.438 21.8785V14.8906H125.898V12H128.438V9.7969C128.438 7.29065 129.93 5.90627 132.215 5.90627C133.309 5.90627 134.453 6.10159 134.453 6.10159V8.56252H133.192C131.95 8.56252 131.562 9.33336 131.562 10.1242V12H134.336L133.893 14.8906H131.562V21.8785C136.343 21.1283 140 16.9913 140 12Z" fill="black"/>
</svg>
